# xmcd
#
# Track frame offsets: 
#        150
#        22460
#        47587
#        72820
#        88762
#        111920
#        133520
#        148945
#        173990
#        187105
#
# Disc length: 2846 seconds
#
# Revision: 2
# Processed by: cddbd v1.5.2PL0 Copyright (c) Steve Scherf et al.
# Submitted via: ExactAudioCopy v0.99pb3
#
DISCID=990b1c0a
DTITLE=Boys II Men - Evolucion
DYEAR=1997
DGENRE=
TTITLE0=4 Estaciones De Soledad
TTITLE1=A Mi Me Va Bien
TTITLE2=Te Doy Mi Amor
TTITLE3=La Chica De La Revista
TTITLE4=Una Canci¨®n Para Mam¨¢ 
TTITLE5=Yo Te Voy A Amar
TTITLE6=No Dejemos Que Muera El Amor
TTITLE7=Me Rindo Ante Ti
TTITLE8=Yesterday
TTITLE9=Al Final Del Camino
EXTD=
EXTT0=
EXTT1=
EXTT2=
EXTT3=
EXTT4=
EXTT5=
EXTT6=
EXTT7=
EXTT8=
EXTT9=
PLAYORDER=
